<?xml version="1.0" standalone="no"?>
<svg viewBox="0 0 200 200" xmlns="http://www.w3.org/2000/svg">
  <path fill="#3A86FF" d="M23.7,-33.2C38.6,-27.3,64,-34.1,73.6,-28.9C83.1,-23.8,76.9,-6.8,70.1,7C63.2,20.7,55.8,31.3,46.7,38.9C37.7,46.5,27,51.2,14.9,58C2.8,64.8,-10.7,73.8,-19,69.2C-27.2,64.7,-30.1,46.6,-41,35C-51.9,23.3,-70.9,18.1,-72.6,10.1C-74.3,2.1,-58.6,-8.8,-50.3,-21.3C-42,-33.8,-41,-48.1,-33.9,-57.5C-26.7,-66.9,-13.4,-71.4,-4.5,-64.4C4.4,-57.5,8.8,-39,23.7,-33.2Z" transform="translate(100 100)" />
</svg>
