<?xml version="1.0" standalone="no"?><svg xmlns="http://www.w3.org/2000/svg" viewBox="0 0 1440 320"><path fill="white" fill-opacity="1" d="M0,128L21.8,133.3C43.6,139,87,149,131,160C174.5,171,218,181,262,186.7C305.5,192,349,192,393,165.3C436.4,139,480,85,524,85.3C567.3,85,611,139,655,144C698.2,149,742,107,785,90.7C829.1,75,873,85,916,128C960,171,1004,245,1047,250.7C1090.9,256,1135,192,1178,138.7C1221.8,85,1265,43,1309,26.7C1352.7,11,1396,21,1418,26.7L1440,32L1440,320L1418.2,320C1396.4,320,1353,320,1309,320C1265.5,320,1222,320,1178,320C1134.5,320,1091,320,1047,320C1003.6,320,960,320,916,320C872.7,320,829,320,785,320C741.8,320,698,320,655,320C610.9,320,567,320,524,320C480,320,436,320,393,320C349.1,320,305,320,262,320C218.2,320,175,320,131,320C87.3,320,44,320,22,320L0,320Z"></path></svg>